<svg width="24" height="24" viewBox="0 0 24 24" fill="none" xmlns="http://www.w3.org/2000/svg">
<path d="M22.7155 3.89403C22.6708 3.80519 22.6022 3.73059 22.5174 3.67865C22.4326 3.6267 22.335 3.59947 22.2355 3.60003H1.73952C1.62903 3.59888 1.52098 3.63242 1.43056 3.69593C1.34015 3.75944 1.27192 3.84971 1.23552 3.95403C1.19606 4.05736 1.1893 4.17032 1.21613 4.27763C1.24295 4.38494 1.30208 4.48142 1.38552 4.55403L8.58552 10.716V21.63C8.58619 21.7433 8.62249 21.8535 8.68925 21.945C8.75601 22.0366 8.84985 22.1048 8.95751 22.14C9.01319 22.1486 9.06984 22.1486 9.12551 22.14C9.20935 22.14 9.29203 22.1205 9.36701 22.083C9.44199 22.0455 9.50722 21.9911 9.55751 21.924L22.6495 4.44003C22.7078 4.363 22.7447 4.27187 22.7563 4.17594C22.7679 4.08002 22.7538 3.98274 22.7155 3.89403V3.89403ZM3.19753 4.68603H19.8775L9.21553 9.82803L3.19753 4.68603ZM9.67752 10.8L20.4775 5.58603L9.67752 19.986V10.8Z" fill="black"/>
</svg>
