<svg width="23" height="22" viewBox="0 0 23 22" fill="none" xmlns="http://www.w3.org/2000/svg">
<path d="M21.6948 14.5099L16.2315 12.2226C15.984 12.1234 15.7139 12.0836 15.4457 12.1066C15.1775 12.1297 14.9197 12.2148 14.6956 12.3544C14.6729 12.368 14.6513 12.3832 14.6309 12.3998L11.7755 14.6688C11.7459 14.6838 11.7129 14.6922 11.6792 14.6934C11.6455 14.6945 11.6119 14.6883 11.5812 14.6753C9.74584 13.8476 7.84456 12.082 6.95521 10.3912C6.9404 10.3629 6.9327 10.3319 6.9327 10.3004C6.9327 10.269 6.9404 10.2379 6.95521 10.2097L9.39195 7.50847C9.40945 7.48848 9.42566 7.46757 9.44053 7.44581C9.58785 7.23566 9.67684 6.99455 9.69945 6.74422C9.72207 6.4939 9.67759 6.24226 9.57006 6.01202L7.1391 0.916535C7.00104 0.615744 6.76229 0.364892 6.45868 0.201639C6.15506 0.038382 5.80296 -0.0284745 5.45523 0.0111031C3.94394 0.196724 2.5567 0.8901 1.55276 1.96168C0.548809 3.03324 -0.00315514 4.40967 1.35677e-05 5.83375C1.35677e-05 14.2939 7.36693 21.1765 16.4223 21.1765C17.9465 21.1791 19.4197 20.6633 20.5666 19.7254C21.7135 18.7876 22.4558 17.4917 22.6547 16.0798C22.697 15.7565 22.6264 15.4291 22.4534 15.1461C22.2805 14.8633 22.0144 14.6401 21.6948 14.5099ZM16.4223 19.8798C8.13252 19.8798 1.38782 13.5785 1.38782 5.83375C1.38394 4.72511 1.81225 3.65308 2.59271 2.81796C3.37316 1.98282 4.45238 1.44174 5.6287 1.29577H5.6553C5.70191 1.29659 5.74716 1.31054 5.78513 1.3358C5.82311 1.36105 5.85202 1.39644 5.8681 1.43732L8.30832 6.52741C8.32223 6.5557 8.32943 6.58648 8.32943 6.61763C8.32943 6.64878 8.32223 6.67954 8.30832 6.70785L5.86694 9.4155C5.84872 9.43483 5.83211 9.45543 5.81721 9.4771C5.66445 9.69498 5.57449 9.94602 5.55605 10.2059C5.53762 10.4658 5.59132 10.7258 5.71197 10.9606C6.73779 12.9227 8.85419 14.8848 10.9775 15.8432C11.2303 15.9553 11.5099 16.0043 11.789 15.9854C12.0681 15.9664 12.3372 15.8802 12.57 15.7352C12.592 15.7211 12.614 15.706 12.6348 15.6898L15.489 13.4208C15.5172 13.4067 15.5483 13.3984 15.5803 13.3965C15.6122 13.3946 15.6442 13.3993 15.6741 13.41L21.1385 15.6974C21.1832 15.7151 21.2206 15.7455 21.2458 15.7842C21.2709 15.8231 21.2823 15.8683 21.2784 15.9134C21.123 17.013 20.5445 18.0219 19.6507 18.7519C18.7571 19.4819 17.6094 19.8828 16.4223 19.8798Z" fill="black"/>
</svg>
