<?xml version='1.0' encoding='utf-8'?>
<svg xmlns="http://www.w3.org/2000/svg" enable-background="new 0 0 1878.664 1686.38" version="1.1" viewBox="0 0 1878.7 1686.4"> <polygon points="234.34 352.68 146.75 387.71 141.39 368.76"/> <polygon points="1479.1 638.85 1526.9 557.54 1542.7 569.24"/> <polygon points="1194.8 199.41 1118 144.69 1131 129.93"/> <polygon points="1160.6 357.65 1076 315.98 1086.4 299.32"/> <polygon points="251.57 525.96 178.13 585.17 167.44 568.64"/> <polygon points="1137.6 341.38 1050.4 305.53 1059.7 288.2"/> <polygon points="1319 146.22 1256.7 75.386 1272.8 63.998"/> <polygon points="1217.1 339.17 1142.7 281.13 1156.4 266.96"/> <polygon points="240.28 604.11 177.94 674.91 164.6 660.42"/> <polygon points="263.88 620.53 204.05 693.46 190.21 679.45"/> <polygon points="347.82 583.98 280.78 650.34 268.46 634.98"/> <polygon points="1312.2 1056.3 1404.9 1039 1406.5 1058.6"/> <polygon points="1582 715.67 1647 647.35 1659.8 662.34"/> <polygon points="1128.1 1388.4 1222.5 1387.7 1220.6 1407.3"/> <polygon points="1530.5 803.57 1608.2 750.14 1617.6 767.44"/> <polygon points="293.72 638.42 237.03 713.82 222.62 700.41"/> <polygon points="172.07 739.28 128.89 823.15 112.42 812.36"/> <polygon points="1021.2 1522.4 1115.4 1526.2 1112.6 1545.7"/> <polygon points="420.97 714.71 384.02 801.5 366.8 791.94"/> <polygon points="1045.7 1506.7 1139.9 1509.9 1137.2 1529.4"/> <polygon points="308.75 242.32 215.16 254.15 214.74 234.47"/> <polygon points="1338.1 176.5 1278.8 103.17 1295.3 92.451"/> <polygon points="399.07 577.61 329.51 641.33 317.8 625.5"/> <polygon points="1032.4 853.72 1052 761.44 1070.7 767.52"/> <polygon points="1584.1 950.82 1670.1 912.25 1676.3 930.96"/> <polygon points="1286.5 1084.4 1379.6 1069.6 1380.7 1089.2"/> <polygon points="951.64 1494.9 1045.9 1498.7 1043 1518.2"/> <polygon points="1265.2 1107.4 1358.6 1094.5 1359.3 1114.2"/> <polygon points="291 227.89 197.46 240.05 196.97 220.37"/> <polygon points="387.57 347.14 294.76 364.01 293.28 344.37"/> <polygon points="431.51 353.02 337.77 363.52 337.63 343.84"/> <polygon points="185.86 310.84 97.539 343.97 92.587 324.91"/> <polygon points="1184.2 336.47 1104.1 286.75 1116.1 271.19"/> <polygon points="330.75 679.99 282.53 761.07 266.75 749.29"/> <polygon points="1524.8 390.92 1515.9 297 1535.6 297.21"/> <polygon points="1311 1278.6 1405 1270.3 1404.7 1289.9"/> <polygon points="201.98 565.54 134.63 631.58 122.39 616.16"/> <polygon points="446.89 135.71 354.55 116.42 360.57 97.67"/> <polygon points="390.29 751.49 358.66 840.36 340.9 831.86"/> <polygon points="403.04 781.51 377.38 872.28 359.1 864.98"/> <polygon points="1062.4 1482.2 1156.7 1484.6 1154.2 1504.2"/> <polygon points="418.45 413.54 327.58 438.86 324.3 419.45"/> <polygon points="881.85 1603.7 976.1 1607.6 973.26 1627.1"/> <polygon points="1238.1 364.79 1167.8 301.81 1182.4 288.6"/> <polygon points="1174 382.1 1090.8 337.68 1101.9 321.38"/> <polygon points="1338.5 1175.5 1431.9 1162.6 1432.5 1182.3"/> <polygon points="469.23 405 375.92 418.89 375.07 399.22"/> <polygon points="1502.1 845.57 1584.4 799.41 1592.2 817.49"/> <polygon points="1598.3 396.75 1601.6 302.48 1621 305.2"/> <polygon points="1553.8 833.03 1633.6 782.68 1642.3 800.33"/> <polygon points="1531.9 526.85 1553.9 435.14 1572.5 441.72"/> <polygon points="458.18 309.3 363.88 307.12 366.38 287.59"/> <polygon points="1120.3 360.35 1030.4 332.06 1038.2 314"/> <polygon points="1083.4 1377.2 1177.7 1377.4 1175.6 1397"/> <polygon points="483.65 325.52 389.45 320.56 392.53 301.11"/> <polygon points="1221.4 950.73 1313.8 931.7 1315.7 951.29"/> <polygon points="1675.2 408.6 1689.1 315.29 1708.1 320.19"/> <polygon points="307.74 184.86 213.54 189.87 214.55 170.21"/> <polygon points="996.12 1547.5 1090.4 1551.3 1087.5 1570.8"/> <polygon points="1135.5 385.84 1046.2 355.66 1054.4 337.76"/> <polygon points="1695.6 811.01 1769.9 752.91 1780.3 769.6"/> <polygon points="1567.1 863.97 1648.9 816.92 1656.9 834.91"/> <polygon points="1090.2 1309.8 1184.5 1308.5 1182.7 1328.1"/> <polygon points="251.12 492.18 174.07 546.59 164.45 529.41"/> <polygon points="323.5 563.02 253.4 626.14 241.82 610.21"/> <polygon points="269.32 462.93 188.85 512.16 180.38 494.38"/> <polygon points="290.15 482.39 210.9 533.55 202.01 515.99"/> <polygon points="321.7 956.66 311.28 1050.4 292.05 1046.2"/> <polygon points="495.65 406.96 401.68 415.19 402.02 395.5"/> <polygon points="858.7 1503.9 952.95 1507.7 950.1 1527.2"/> <polygon points="990.3 1331.2 1084.6 1332.7 1082.3 1352.2"/> <polygon points="197.61 754.25 157.31 839.54 140.48 829.31"/> <polygon points="1513.6 679.31 1572.4 605.5 1586.4 619.3"/> <polygon points="423.38 902.07 413.97 995.93 394.7 991.94"/> <polygon points="1077.4 267.81 986.95 241.02 994.48 222.82"/> <polygon points="325.24 507.51 247.53 561 238.12 543.7"/> <polygon points="1046 880.15 1139.3 866.06 1140.2 885.73"/> <polygon points="1390.5 159.16 1337.2 81.305 1354.5 71.945"/> <polygon points="421.34 208.87 327.4 200.35 331.21 181.03"/> <polygon points="970.14 1531.8 1064.4 1535.7 1061.5 1555.2"/> <polygon points="298.13 427.39 213.46 468.98 206.67 450.5"/> <polygon points="1108.8 1357.1 1203.2 1356.3 1201.3 1375.9"/> <polygon points="796.59 1027 810.54 1120.3 790.87 1121.1"/> <polygon points="1073.4 511.45 982.72 537.39 979.32 518"/> <polygon points="455.28 1016.1 455.98 1110.4 436.39 1108.5"/> <polygon points="1427.9 316.36 1390.4 229.81 1409.2 223.91"/> <polygon points="228.7 659.15 174.88 736.62 159.98 723.76"/> <polygon points="1423.7 869.65 1509.8 831.07 1515.9 849.78"/> <polygon points="966.16 913.81 1060.1 905.07 1059.9 924.76"/> <polygon points="496.75 222.13 404.63 201.84 410.85 183.16"/> <polygon points="1261.8 1143.9 1355.4 1132.6 1355.8 1152.3"/> <polygon points="492.37 1016.3 494.82 1110.6 475.19 1109.1"/> <polygon points="1239 1263.2 1333.1 1256.6 1332.4 1276.3"/> <polygon points="1591.9 491.44 1612.5 399.4 1631.2 405.69"/> <polygon points="1198.6 734.7 1282.4 691.32 1289.5 709.66"/> <polygon points="337.3 650.06 283.26 727.38 268.39 714.48"/> <polygon points="395.22 835.44 376.72 927.94 357.93 922.08"/> <polygon points="1485.1 705.25 1549.6 636.41 1562.5 651.3"/> <polygon points="1673.1 443.9 1692.5 351.59 1711.3 357.63"/> <polygon points="1003.8 1418.5 1098.1 1421.2 1095.5 1440.7"/> <polygon points="1326.1 229.14 1266.7 155.9 1283.2 145.16"/> <polygon points="657.22 922.6 662.37 1016.8 642.7 1015.8"/> <polygon points="356.84 965.39 349.05 1059.4 329.71 1055.7"/> <polygon points="1609.6 459.85 1625.8 366.92 1644.7 372.3"/> <polygon points="1749.3 684.84 1809 611.81 1822.9 625.8"/> <polygon points="272.49 808.17 242.98 897.77 225.02 889.69"/> <polygon points="430.54 1040.5 431.47 1134.8 411.87 1132.9"/> <polygon points="1558.5 621.6 1605.1 539.61 1621.1 551.07"/> <polygon points="598.99 146.1 514.79 103.57 525.45 87.014"/> <polygon points="671.91 130.07 594.23 76.539 607.04 61.582"/> <polygon points="972.64 1428.8 1066.9 1432.2 1064.1 1451.7"/> <polygon points="205.68 818.77 174.33 907.74 156.54 899.3"/> <polygon points="386.01 956.73 379.12 1050.8 359.74 1047.3"/> <polygon points="267.3 886.42 247.09 978.56 228.4 972.36"/> <polygon points="1687.6 304.16 1687.5 209.82 1707.1 211.85"/> <polygon points="249.53 760.94 212.17 847.56 195 837.91"/> <polygon points="1482.4 736.23 1552.8 673.42 1564.3 689.4"/> <polygon points="967.9 1460.3 1062.2 1464.1 1059.3 1483.6"/> <polygon points="1466.5 149.27 1422.7 65.736 1441 58.458"/> <polygon points="314.5 347.98 224.02 374.65 220.45 355.29"/> <polygon points="865.42 973.94 879.91 1067.2 860.25 1068.1"/> <polygon points="1643.8 408.52 1654.5 314.8 1673.7 319.05"/> <polygon points="389.4 1083.2 390.79 1177.5 371.18 1175.7"/> <polygon points="456.75 1072.7 460.48 1167 440.83 1165.7"/> <polygon points="552.87 1025.9 558.44 1120.1 538.77 1119.2"/> <polygon points="1609 951.7 1694.6 912.03 1701 930.66"/> <polygon points="501.71 346.38 407.55 340.72 410.77 321.3"/> <polygon points="1472.5 1112.5 1564.3 1091.2 1566.8 1110.7"/> <polygon points="1756 644.03 1810.3 566.94 1825.2 579.9"/> <polygon points="1226.7 1325.7 1320.9 1321.1 1319.8 1340.7"/> <polygon points="369.22 704.29 327.29 788.79 310.66 778.25"/> <polygon points="303.48 529.67 229.03 587.6 218.62 570.89"/> <polygon points="237.14 798.5 204.58 887.03 186.91 878.34"/> <polygon points="308.66 799.6 279.89 889.44 261.87 881.52"/> <polygon points="547 668.42 506.51 753.62 489.71 743.36"/> <polygon points="1273.9 315.35 1209.1 246.78 1224.7 234.83"/> <polygon points="984.41 1168.3 1078.7 1166.6 1077 1186.2"/> <polygon points="570.36 1083.4 578.95 1177.4 559.26 1177.1"/> <polygon points="287.2 844.86 263.26 936.1 244.84 929.15"/> <polygon points="1490.2 176.08 1451.2 90.186 1469.9 83.962"/> <polygon points="478.13 614.94 416.11 686.01 402.71 671.59"/> <polygon points="237.31 863.91 212.97 955.05 194.59 948.01"/> <polygon points="537.9 411.26 443.6 408.79 446.17 389.27"/> <polygon points="373.19 172.26 278.99 167.17 282.1 147.73"/> <polygon points="572.09 344.01 480.89 319.88 487.89 301.48"/> <polygon points="363.59 557.93 291.49 618.75 280.43 602.46"/> <polygon points="413.81 133.81 320.61 119.27 325.66 100.24"/> <polygon points="1672.2 270.16 1666.1 176.02 1685.8 176.81"/> <polygon points="339.02 816.95 314.47 908.03 296.1 900.95"/> <polygon points="300.72 672.56 250.35 752.31 234.89 740.11"/> <polygon points="504.72 171.8 413.99 146 421.32 127.73"/> <polygon points="591.79 317.86 503.01 285.98 511.56 268.25"/> <polygon points="727.36 155.2 654.98 94.71 669.11 81.001"/> <polygon points="926.84 1533.8 1021.1 1537.6 1018.2 1557.1"/> <polygon points="722.06 705.11 712.5 798.95 693.23 794.93"/> <polygon points="1067.1 974.78 1160.9 964.34 1161 984.03"/> <polygon points="960.26 1394.9 1054.5 1398.1 1051.8 1417.6"/> <polygon points="602 496.32 507.69 494.5 510.12 474.96"/> <polygon points="169.78 704.72 121.75 785.9 105.94 774.16"/> <polygon points="1678.8 483.2 1705.4 392.68 1723.6 400.16"/> <polygon points="607.32 1114.9 618.18 1208.6 598.5 1208.8"/> <polygon points="1166.3 1281.5 1260.6 1277.5 1259.4 1297.2"/> <polygon points="873.92 595.34 893.5 503.06 912.23 509.13"/> <polygon points="1570.9 526.65 1597.1 436.02 1615.3 443.42"/> <polygon points="260.94 410.66 176.3 452.32 169.5 433.84"/> <polygon points="408.41 1004.8 406.14 1099.1 386.61 1096.6"/> <polygon points="764.69 170.5 696.74 105.07 711.8 92.392"/> <polygon points="1474.5 365.9 1452.2 274.24 1471.7 271.61"/> <polygon points="1572.5 997.96 1660.6 964.11 1665.7 983.12"/> <polygon points="1503 155.63 1464.3 69.583 1483 63.431"/> <polygon points="1350 1204.7 1443.6 1192.5 1444.1 1212.1"/> <polygon points="1516.5 264.82 1488.9 174.61 1508.2 170.85"/> <polygon points="1481.1 902.48 1567.4 864.32 1573.4 883.06"/> <polygon points="1499.9 813.11 1579.5 762.51 1588.2 780.14"/> <polygon points="355.62 265.85 261.69 274.61 261.92 254.92"/> <polygon points="1156.6 757.58 1176.2 665.31 1194.9 671.38"/> <polygon points="1134.9 314.54 1048.3 277.21 1057.9 260.04"/> <polygon points="1565.6 686.86 1625.8 614.27 1639.6 628.35"/> <polygon points="672.19 1298.5 688.75 1391.4 669.11 1392.8"/> <polygon points="515.02 506.51 427.01 540.46 421.88 521.46"/> <polygon points="629.69 711.46 611.01 803.92 592.22 798.02"/> <polygon points="1180 223.83 1101.1 172.16 1113.6 156.9"/> <polygon points="1114 1265.1 1208.3 1262.1 1206.9 1281.8"/> <polygon points="1411.1 1185 1504.2 1169.7 1505.4 1189.4"/> <polygon points="853.71 503.55 839.52 410.3 859.18 409.38"/> <polygon points="1378.4 190.89 1324.8 113.27 1342.1 103.84"/> <polygon points="1322.1 989.48 1413.8 967.73 1416.4 987.26"/> <polygon points="1321.8 1202.9 1415.5 1191.6 1415.8 1211.3"/> <polygon points="1650.1 626.05 1700.2 546.12 1715.7 558.26"/> <polygon points="1431.9 895 1519 858.85 1524.6 877.72"/> <polygon points="1501.7 540.62 1523.6 448.87 1542.2 455.42"/> <polygon points="392.67 721.08 355.37 807.72 338.2 798.09"/> <polygon points="1067.7 1450.9 1162 1452.7 1159.6 1472.3"/> <polygon points="512.1 276.54 419.45 258.78 425.16 239.94"/> <polygon points="1435 269.12 1394.6 183.9 1413.1 177.36"/> <polygon points="794.17 1495.4 888.43 1499.3 885.58 1518.7"/> <polygon points="1596.7 788.77 1671.1 730.74 1681.5 747.44"/> <polygon points="423.23 750.55 393.64 840.12 375.69 832.02"/> <polygon points="607.42 1250 621.73 1343.2 602.06 1344.2"/> <polygon points="928.88 1507.2 1023.1 1511.1 1020.3 1530.6"/> <polygon points="793.19 1458.1 813.21 1550.3 793.64 1552.4"/> <polygon points="1480.3 767.88 1555.5 710.92 1565.7 727.76"/> <polygon points="783.25 1198.6 800.27 1291.4 780.64 1292.9"/> <polygon points="524.91 243.39 433.62 219.65 440.53 201.22"/> <polygon points="999.47 418.05 906.59 434.54 905.19 414.9"/> <polygon points="1571.6 408.62 1573.4 314.3 1592.9 316.72"/> <polygon points="469.97 944.85 466.81 1039.1 447.31 1036.4"/> <polygon points="1414.3 798.74 1495.4 750.64 1503.6 768.53"/> <polygon points="493.21 1199.3 503.12 1293.1 483.44 1293.1"/> <polygon points="1330.8 870.15 1419.3 837.62 1424.1 856.7"/> <polygon points="896.11 1453.4 990.36 1457.3 987.51 1476.8"/> <polygon points="285.09 603.98 222.42 674.49 209.15 659.94"/> <polygon points="542.58 207.73 453.11 177.82 461.27 159.9"/> <polygon points="509.11 1171.1 518.63 1264.9 498.94 1264.9"/> <polygon points="1667.2 536.04 1702.1 448.41 1719.5 457.56"/> <polygon points="229.16 251.15 137.37 272.9 134.85 253.37"/> <polygon points="627.84 1129.9 639.76 1223.5 620.08 1223.9"/> <polygon points="159.63 482.98 84.01 539.37 73.951 522.44"/> <polygon points="416.01 1060.3 417.36 1154.7 397.75 1152.9"/> <polygon points="1547.4 664.35 1603.2 588.24 1617.8 601.46"/> <polygon points="532.48 111.68 444.4 77.892 453.34 60.345"/> <polygon points="1575.1 891.04 1658.4 846.76 1665.7 865.01"/> <polygon points="1319.2 305.4 1261.2 230.97 1277.9 220.56"/> <polygon points="1029.1 385.51 934.8 388.6 936.21 368.96"/> <polygon points="254.12 230.52 161.27 247.16 159.84 227.52"/> <polygon points="1381.7 904.35 1470.4 872.21 1475.1 891.32"/> <polygon points="1188.2 278.34 1109.7 226.1 1122.2 210.94"/> <polygon points="345.35 1010.2 340.28 1104.4 320.84 1101.3"/> <polygon points="1330.6 511.43 1295 424.1 1313.9 418.6"/> <polygon points="929.77 1596.5 1024 1600.3 1021.2 1619.8"/> <polygon points="1504.6 657.84 1558.3 580.25 1573.2 593.07"/> <polygon points="1730.9 521.94 1766.7 434.66 1784 443.99"/> <polygon points="432.13 1004.8 431.04 1099.1 411.48 1096.8"/> <polygon points="1482.9 1090.8 1574.3 1067.7 1577.1 1087.2"/> <polygon points="316.06 628.11 257.58 702.13 243.49 688.38"/> <polygon points="735.02 1219.6 751.47 1312.5 731.83 1313.9"/> <polygon points="1467.2 481.34 1466.6 387.01 1486.2 388.94"/> <polygon points="1235.3 668.52 1178 593.6 1194.8 583.33"/> <polygon points="404.49 677.87 358.3 760.12 342.23 748.74"/> <polygon points="1254.7 1282 1348.8 1275.4 1348.1 1295.1"/> <polygon points="482.81 1044.9 486.3 1139.1 466.66 1137.8"/> <polygon points="386.66 265.44 292.41 269.49 293.62 249.84"/> <polygon points="1009.4 1387.4 1103.7 1389.4 1101.2 1408.9"/> <polygon points="361.12 767.18 330.4 856.38 312.55 848.06"/> <polygon points="636.9 1321.8 653.17 1414.7 633.53 1416.1"/> <polygon points="1477.4 679.48 1536.1 605.64 1550.2 619.44"/> <polygon points="1215.6 1102.5 1309.3 1091.4 1309.6 1111"/> <polygon points="582.53 1227.5 595.72 1320.9 576.05 1321.6"/> <polygon points="356.95 672.04 307.86 752.59 292.2 740.65"/> <polygon points="1518.1 1066.5 1608.8 1040.3 1612.2 1059.6"/> <polygon points="1407.3 197.76 1358 117.33 1375.8 108.85"/> <polygon points="1454.9 732.82 1525.4 670.22 1536.9 686.23"/> <polygon points="1414.9 159.65 1364.8 79.702 1382.5 71.05"/> <polygon points="1070.7 317.9 978.37 298.51 984.41 279.77"/> <polygon points="1411.2 288.39 1368.2 204.43 1386.6 197.33"/> <polygon points="1580.1 973.62 1667.1 937.32 1672.8 956.18"/> <polygon points="569.21 273.5 479.89 243.15 488.14 225.27"/> <polygon points="686.03 1138.9 699.78 1232.2 680.1 1233.1"/> <polygon points="1081.4 784.41 1101 692.13 1119.7 698.21"/> <polygon points="1094.2 228.46 1006.1 194.66 1015 177.12"/> <polygon points="874.62 427.98 848.1 337.45 867.47 333.92"/> <polygon points="1741.6 479.66 1771.5 390.21 1789.4 398.37"/> <polygon points="1394.6 258.4 1346.7 177.12 1364.7 168.95"/> <polygon points="355.96 493.11 275.43 542.24 266.99 524.45"/> <polygon points="1432.8 925.54 1521.1 892.48 1526 911.54"/> <polygon points="751.22 301.53 682.9 236.48 697.89 223.72"/> <polygon points="1643.6 264.08 1633.5 170.3 1653.2 170.24"/> <polygon points="602.49 625.66 544.71 700.22 530.49 686.6"/> <polygon points="658.05 1349.8 675.15 1442.6 655.52 1444.1"/> <polygon points="794.35 1424.8 814.13 1517 794.55 1519.1"/> <polygon points="1358.2 1149 1451.4 1134.2 1452.4 1153.9"/> <polygon points="1609.3 925 1693.7 882.72 1700.6 901.14"/> <polygon points="544.8 247.71 454.52 220.37 462.16 202.23"/> <polygon points="1091.9 350.02 999.86 329.23 1006.2 310.58"/> <polygon points="1093.9 665.14 1113.5 572.86 1132.2 578.94"/> <polygon points="1625 614.09 1672.3 532.46 1688.2 544.06"/> <polygon points="1408.3 954.49 1498 925.46 1502.1 944.72"/> <polygon points="930.25 525.14 940.24 431.34 959.5 435.46"/> <polygon points="1219.7 381.09 1145.8 322.54 1159.5 308.46"/> <polygon points="609.49 1298.4 624.8 1391.5 605.15 1392.7"/> <polygon points="1152.7 216.85 1070.7 170.33 1082.1 154.31"/> <polygon points="591.03 1140.4 602.16 1234.1 582.47 1234.4"/> <polygon points="1646.8 566.62 1686.1 480.87 1703.1 490.89"/> <polygon points="1304.6 177.58 1241.3 107.69 1257.2 96.061"/> <polygon points="842.81 1414.9 862.97 1507 843.4 1509.2"/> <polygon points="1061.2 249.69 970.16 224.82 977.3 206.48"/> <polygon points="1083.6 1259.1 1177.9 1256.8 1176.4 1276.4"/> <polygon points="699.98 1325 717.42 1417.7 697.8 1419.3"/> <polygon points="366.77 860.17 349.43 952.9 330.56 947.28"/> <polygon points="593.16 1029.5 600.51 1123.6 580.83 1123.1"/> <polygon points="272.07 346.29 182.91 377.09 178.46 357.91"/> <polygon points="494.35 247.8 401.62 230.49 407.23 211.62"/> <polygon points="700.95 246.78 625.53 190.14 638.93 175.71"/> <polygon points="1258.6 1028.1 1351.5 1011.7 1352.9 1031.4"/> <polygon points="1005.2 499.6 917.38 534.13 912.13 515.16"/> <polygon points="1073.4 1412.2 1167.7 1413.2 1165.5 1432.8"/> <polygon points="1635.8 299.08 1629.1 204.99 1648.8 205.65"/> <polygon points="140.92 613.94 80.336 686.24 66.646 672.09"/> <polygon points="898.29 307.29 859.96 221.1 878.68 215.02"/> <polygon points="1512.2 448.19 1512.4 353.86 1532 355.96"/> <polygon points="1721.7 745.77 1788.9 679.6 1801.2 695"/> <polygon points="1331.2 419.07 1282.5 338.29 1300.3 329.94"/> <polygon points="441.28 403.41 348.91 422.52 346.95 402.93"/> <polygon points="816.32 1411.1 836.2 1503.3 816.63 1505.4"/> <polygon points="821.65 1229.1 839.74 1321.7 820.13 1323.5"/> <polygon points="1574.1 266.12 1555.2 173.7 1574.8 171.79"/> <polygon points="944.73 1225.7 1039.1 1226.2 1036.9 1245.8"/> <polygon points="343.06 536.47 268.3 594 257.99 577.23"/> <polygon points="276.92 781.81 243.89 870.18 226.27 861.4"/> <polygon points="1355 996.84 1446.5 973.89 1449.3 993.38"/> <polygon points="1503.1 744.55 1574.2 682.61 1585.5 698.73"/> <polygon points="220.75 543.75 150.27 606.45 138.79 590.46"/> <polygon points="1721.2 666.8 1778.5 591.84 1792.8 605.36"/> <polygon points="837.51 1254 856.14 1346.4 836.54 1348.3"/> <polygon points="633.44 120.01 552.44 71.675 564.24 55.913"/> <polygon points="1106.7 315.81 1017.1 286.41 1025.2 268.45"/> <polygon points="362.97 634.98 306.08 710.22 291.7 696.77"/> <polygon points="411.66 858.26 397 951.45 377.98 946.37"/> <polygon points="1071.8 1213.4 1166.1 1210.4 1164.7 1230.1"/> <polygon points="422.06 941.56 415.98 1035.7 396.57 1032.4"/> <polygon points="1145 267.76 1060.9 224.96 1071.7 208.45"/> <polygon points="868.78 387.24 833.52 299.74 852.45 294.33"/> <polygon points="475 291.78 381.02 283.64 384.76 264.31"/> <polygon points="465.42 433.79 373.65 455.63 371.11 436.1"/> <polygon points="1540.1 890.58 1624.2 847.95 1631.2 866.35"/> <polygon points="918.18 1387.5 1012.4 1391.3 1009.6 1410.8"/> <polygon points="213.21 377.52 127.83 417.63 121.36 399.04"/> <polygon points="222.08 473.4 144.04 526.39 134.74 509.03"/> <polygon points="1742.2 387.98 1758.7 295.1 1777.6 300.54"/> <polygon points="1596.6 828.54 1674.8 775.8 1684.1 793.18"/> <polygon points="1290.9 229.16 1226.8 159.95 1242.5 148.15"/> <polygon points="1711.6 495.46 1742.3 406.26 1760.2 414.56"/> <polygon points="859.94 1178.7 877.98 1271.3 858.36 1273"/> <polygon points="262.86 914.79 245.36 1007.5 226.5 1001.8"/> <polygon points="790.88 1236.6 808.59 1329.2 788.97 1330.9"/> <polygon points="1100 1172.9 1194.2 1168.1 1193.2 1187.7"/> <polygon points="1349.2 1034.6 1441.3 1014.3 1443.5 1033.9"/> <polygon points="445.62 880.32 435.52 974.11 416.27 969.97"/> <polygon points="204.87 697.97 156.6 779.02 140.83 767.24"/> <polygon points="1255.8 285.15 1187.7 219.8 1202.8 207.1"/> <polygon points="1272.8 507.35 1215.1 432.78 1231.8 422.41"/> <polygon points="320 923.99 306.56 1017.4 287.47 1012.5"/> <polygon points="1019.7 1485.5 1114 1488.8 1111.2 1508.3"/> <polygon points="1347.2 131.62 1287.9 58.326 1304.4 47.595"/> <polygon points="539.63 139.69 451.44 106.22 460.3 88.637"/> <polygon points="1519.4 333.78 1500.7 241.34 1520.3 239.46"/> <polygon points="879 1416.9 973.26 1420.7 970.41 1440.2"/> <polygon points="523.57 342.55 429.96 330.91 434.41 311.73"/> <polygon points="417.06 242.8 322.8 238.93 325.66 219.45"/> <polygon points="552.63 175.68 464.51 142.01 473.42 124.45"/> <polygon points="663.07 599.11 580.35 644.47 572.74 626.31"/> <polygon points="969.21 902.36 988.79 810.09 1007.5 816.16"/> <polygon points="182.11 452.18 103.3 504.01 94.253 486.52"/> <polygon points="1068.1 398.54 973.87 393.93 976.88 374.47"/> <polygon points="588.4 370.73 497.55 345.32 504.8 327.02"/> <polygon points="201.5 654.69 146.72 731.49 131.97 718.44"/> <polygon points="868.54 1557.8 962.8 1561.6 959.95 1581.1"/> <polygon points="1605.4 428.04 1615.1 334.22 1634.4 338.28"/> <polygon points="530.83 1119.9 539.34 1213.9 519.66 1213.6"/> <polygon points="618.56 365.13 530.89 330.32 540.03 312.88"/> <polygon points="1714.3 688.75 1774.6 616.17 1788.3 630.26"/> <polygon points="531.7 1226.6 543.52 1320.2 523.84 1320.6"/> <polygon points="1461.4 295.45 1427.9 207.28 1446.9 202.24"/> <polygon points="1184.6 1392 1279 1390.1 1277.3 1409.7"/> <polygon points="1702.8 550.51 1741.8 464.62 1758.8 474.59"/> <polygon points="500.36 917.76 496.89 1012 477.4 1009.3"/> <polygon points="901.28 968.21 995.51 963.84 994.37 983.49"/> <polygon points="1135.2 237.64 1050.8 195.57 1061.4 178.96"/> <polygon points="1141 187.9 1058.2 142.66 1069.4 126.46"/> <polygon points="416.22 814.45 396.38 906.67 377.66 900.54"/> <polygon points="1396.5 883.65 1484 848.39 1489.4 867.32"/> <polygon points="450.04 1133.4 456.16 1227.6 436.49 1226.8"/> <polygon points="1530.1 291.86 1507.7 200.24 1527.2 197.58"/> <polygon points="1449.5 371.05 1422.8 280.56 1442.2 277"/> <polygon points="1660.6 303.58 1657.5 209.3 1677.1 210.7"/> <polygon points="682.8 766.81 677.86 861.01 658.42 857.93"/> <polygon points="861.35 330.48 817.28 247.07 835.55 239.74"/> <polygon points="209.84 590.87 145.81 660.14 132.83 645.34"/> <polygon points="987.6 750.3 1007.2 658.02 1025.9 664.1"/> <polygon points="1053.9 1271.8 1148.2 1270.6 1146.4 1290.2"/> <polygon points="1533.9 602.83 1574.9 517.9 1591.7 528.28"/> <polygon points="1496.7 297.39 1469.5 207.07 1488.8 203.39"/> <polygon points="1338.1 360.62 1286.4 281.7 1303.9 272.69"/> <polygon points="868.33 889.71 880.61 983.24 860.93 983.75"/> <polygon points="474.61 997.55 475.16 1091.9 455.57 1089.9"/> <polygon points="1481.5 208.96 1443.7 122.57 1462.4 116.59"/> <polygon points="337.5 298.52 244.54 314.54 243.24 294.89"/> <polygon points="1358.1 420.9 1316.5 336.22 1335 329.44"/> <polygon points="893.43 1044 910 1136.9 890.37 1138.3"/> <polygon points="1289.9 289.27 1226.9 219.05 1242.9 207.5"/> <polygon points="881.6 344.12 843.76 257.72 862.52 251.74"/> <polygon points="1495 605.64 1534.3 519.88 1551.2 529.91"/> <polygon points="1256.4 422.24 1191 354.26 1206.6 342.16"/> <polygon points="1638.4 908.12 1721.1 862.83 1728.7 881"/> <polygon points="722.06 1182.5 737.58 1275.5 717.93 1276.7"/> <polygon points="1170 253.38 1089.4 204.44 1101.3 188.77"/> <polygon points="1062.7 1358.6 1157 1358.9 1154.9 1378.4"/> <polygon points="495.37 893.69 489.64 987.85 470.22 984.61"/> <polygon points="1353.3 924.96 1443.2 896.5 1447.1 915.78"/> <polygon points="805.2 1266 823.52 1358.5 803.91 1360.3"/> <polygon points="777.52 314.48 714.2 244.57 730.09 232.95"/> <polygon points="1500.5 371.83 1484 278.94 1503.7 277.55"/> <polygon points="1636.9 663.15 1693.1 587.43 1707.6 600.76"/> <polygon points="1651.4 335.04 1651.5 240.71 1671.1 242.78"/> <polygon points="383.87 794.49 358.93 885.47 340.59 878.31"/> <polygon points="1256.2 343.99 1189.1 277.61 1204.4 265.14"/> <polygon points="1035 1371.1 1129.4 1372.3 1127.1 1391.8"/> <polygon points="824.28 1501.4 918.54 1505.3 915.69 1524.7"/> <polygon points="1167.2 173.48 1087.4 123.14 1099.6 107.67"/> <polygon points="418.28 325.95 324.29 334.01 324.66 314.33"/> <polygon points="734.73 342.69 664.05 280.22 678.55 266.91"/> <polygon points="388.51 380.67 297.03 403.7 294.24 384.2"/> <polygon points="655.92 282.28 574.82 234.12 586.58 218.33"/> <polygon points="1203 247.8 1126.9 192.1 1140.1 177.51"/> <polygon points="185.26 673.03 132.98 751.55 117.82 738.98"/> <polygon points="1128.1 960 1221.4 946.17 1222.2 965.84"/> <polygon points="635.05 182.7 553.35 135.55 564.92 119.61"/> <polygon points="732.19 1370.2 750.7 1462.7 731.09 1464.5"/> <polygon points="919.96 1151.4 1014.3 1151.1 1012.3 1170.7"/> <polygon points="769.03 1260.2 786.71 1352.8 767.09 1354.5"/> <polygon points="1349.3 1114.3 1442.3 1098.3 1443.6 1117.9"/> <polygon points="445.05 504.61 361.6 548.6 354.29 530.32"/> <polygon points="767.75 381.61 704.58 311.56 720.5 299.97"/> <polygon points="1539.2 938.28 1625.8 900.7 1631.7 919.48"/> <polygon points="686.79 1191.3 701.7 1284.5 682.04 1285.6"/> <polygon points="499.26 447.06 406.66 465.05 404.94 445.44"/> <polygon points="512.2 940.67 511.06 1035 491.5 1032.7"/> <polygon points="481.03 1160.7 489.28 1254.7 469.59 1254.3"/> <polygon points="689.84 631.04 646.22 714.68 629.81 703.8"/> <polygon points="1145.5 1263.6 1239.7 1259.8 1238.5 1279.4"/> <polygon points="1036.3 407.06 942.19 413.06 942.99 393.38"/> <polygon points="515.7 198.09 424.95 172.33 432.27 154.06"/> <polygon points="1126.1 1074.9 1220 1066 1219.8 1085.7"/> <polygon points="754.77 746.42 774.35 654.14 793.08 660.21"/> <polygon points="239.39 707.35 193.4 789.71 177.31 778.37"/> <polygon points="1574.2 638.44 1625 558.92 1640.4 571.19"/> <polygon points="1662.9 691.58 1723.7 619.42 1737.3 633.61"/> <polygon points="798.58 294.03 738.6 221.23 755.02 210.36"/> <polygon points="1452.8 404.35 1432.2 312.3 1451.8 310.03"/> <polygon points="539.2 1091.5 546.97 1185.5 527.28 1185.1"/> <polygon points="720.71 1121.6 734.93 1214.9 715.26 1215.8"/> <polygon points="1166.9 301.58 1084.8 255.04 1096.3 239.02"/> <polygon points="128.74 545.1 60.037 609.74 48.115 594.07"/> <polygon points="772.89 596.96 762.24 503.23 781.93 503.06"/> <polygon points="1517.3 720.97 1584.2 654.5 1596.5 669.84"/> <polygon points="343.96 784.3 314.96 874.06 296.96 866.08"/> <polygon points="1706.9 614.61 1756.3 534.24 1771.9 546.24"/> <polygon points="1457.4 928.82 1545.4 894.69 1550.5 913.69"/> <polygon points="1031 1239.4 1125.3 1238.1 1123.6 1257.7"/> <polygon points="645.59 1174.3 659.13 1267.6 639.46 1268.4"/> <polygon points="1668.1 790.91 1741.1 731.13 1751.9 747.58"/> <polygon points="465.92 842.17 453.1 935.62 433.98 930.93"/> <polygon points="977.27 1283.7 1071.6 1284.6 1069.4 1304.2"/> <polygon points="202.8 333.62 115.14 368.46 109.82 349.5"/> <polygon points="540.11 572.69 462.82 626.76 453.28 609.54"/> <polygon points="343.52 611.52 281.8 682.85 268.34 668.49"/> <polygon points="312.53 593 247.69 661.52 234.88 646.56"/> <polygon points="1157.2 801.71 1247.4 773.98 1251.2 793.3"/> <polygon points="1695 700.99 1757 629.86 1770.4 644.27"/> <polygon points="202.28 724.07 157.81 807.26 141.51 796.21"/> <polygon points="707.52 1219.4 723.42 1312.4 703.77 1313.7"/> <polygon points="1259.7 1175.7 1353.5 1165.7 1353.5 1185.3"/> <polygon points="1465.6 272.18 1430.6 184.6 1449.5 179.23"/> <polygon points="1376 1217.8 1469.5 1205.2 1470.1 1224.8"/> <polygon points="555.2 1155 565.67 1248.7 545.98 1248.8"/> <polygon points="753.95 359.28 687.1 292.73 702.37 280.3"/> <polygon points="559.23 1254.5 572.47 1347.9 552.79 1348.6"/> <polygon points="642.62 1291.6 658.49 1384.6 638.84 1385.9"/> <polygon points="913.72 1470 1008 1473.9 1005.1 1493.3"/> <polygon points="656.09 195.98 576.25 145.74 588.42 130.26"/> <polygon points="1681 630.6 1732.4 551.53 1747.7 563.93"/> <polygon points="1475 425.2 1463.1 331.62 1482.8 331.2"/> <polygon points="669.43 1077.2 681.08 1170.8 661.39 1171.2"/> <polygon points="1453.7 504.56 1456.6 410.27 1476.1 412.92"/> <polygon points="640.37 993.45 648.08 1087.5 628.4 1087"/> <polygon points="361.52 740.28 326.15 827.72 308.77 818.48"/> <polygon points="849.28 421.57 813.89 334.12 832.81 328.68"/> <polygon points="310.66 833.9 286.68 925.14 268.27 918.17"/> <polygon points="174.55 346.7 88.45 385.24 82.325 366.53"/> <polygon points="284.16 326.38 193.64 352.95 190.1 333.59"/> <polygon points="240.32 565.86 172.39 631.32 160.28 615.79"/> <polygon points="773.77 1522 868.02 1525.8 865.17 1545.3"/> <polygon points="386.15 316.77 292.57 328.65 292.14 308.96"/> <polygon points="1601.7 580.81 1641.5 495.3 1658.4 505.42"/> <polygon points="1387.3 603.61 1413.1 512.89 1431.4 520.23"/> <polygon points="1436 449.39 1420.3 356.38 1439.9 355.14"/> <polygon points="293.37 922.18 278.27 1015.3 259.27 1010.1"/> <polygon points="1241.4 313.28 1171.3 250.16 1185.9 236.98"/> <polygon points="912.58 1577.4 1006.8 1581.3 1004 1600.7"/> <polygon points="891.26 406.26 865.16 315.61 884.55 312.17"/> <polygon points="150.75 428.1 70.831 478.22 62.169 460.54"/> <polygon points="893.02 456.05 877.78 362.95 897.44 361.82"/> <polygon points="220.2 623.86 160.91 697.22 146.97 683.32"/> <polygon points="1385.5 220.77 1334.2 141.62 1351.7 132.69"/> <polygon points="216.78 511.77 142.58 570.03 132.11 553.36"/> <polygon points="1727.9 717.05 1791.7 647.58 1804.7 662.34"/> <polygon points="581.95 182.93 495.75 144.63 505.58 127.57"/> <polygon points="864.25 1353.6 884.15 1445.8 864.58 1447.9"/> <polygon points="1699.6 519.98 1733.5 431.96 1751 440.93"/> <polygon points="1384.5 285.41 1336.6 204.14 1354.5 195.97"/> <polygon points="1727.4 360.85 1738.9 267.22 1758 271.63"/> <polygon points="1041.5 1053.6 1135.6 1047.1 1134.9 1066.8"/> <polygon points="1391.5 1029.6 1483.1 1007 1485.8 1026.5"/> <polygon points="537.41 293.31 445.54 271.88 451.99 253.28"/> <polygon points="780.14 1325.3 798.79 1417.8 779.19 1419.6"/> <polygon points="672.16 162.21 594.26 109.01 607 93.999"/> <polygon points="1215.7 1268.4 1309.9 1262.6 1309 1282.3"/> <polygon points="638.22 148.16 557.28 99.708 569.1 83.961"/> <polygon points="1223.1 151.64 1149.8 92.232 1163.8 78.317"/> <polygon points="1111.7 262.34 1024.2 227.03 1033.4 209.64"/> <polygon points="817.19 206.2 757.32 133.3 773.76 122.46"/> <polygon points="479.17 116.82 388.34 91.33 395.61 73.032"/> <polygon points="837.35 282.54 784.39 204.48 801.75 195.18"/> <polygon points="1314.5 588 1299.3 494.9 1319 493.77"/> <polygon points="1653 825.43 1729.5 770.29 1739.3 787.38"/> <polygon points="1350.1 1243.9 1443.8 1233.1 1444 1252.8"/> <polygon points="892.96 1563.9 987.22 1567.7 984.37 1587.2"/> <polygon points="1536.1 558.41 1566.5 469.11 1584.4 477.37"/> <polygon points="1634.2 715.12 1698.6 646.16 1711.5 661.02"/> <polygon points="1443.1 960.41 1532.4 929.97 1536.7 949.17"/> <polygon points="1609.1 896.17 1691.8 850.89 1699.4 869.05"/> <polygon points="1466 969.94 1555.1 939.09 1559.6 958.27"/> <polygon points="1001.4 374.1 907.36 381.05 907.97 361.37"/> <polygon points="1099.6 1464.9 1193.9 1466.2 1191.6 1485.8"/> <polygon points="1535.3 853.25 1617.2 806.39 1625.1 824.4"/> <polygon points="1678.3 844.22 1755.8 790.43 1765.3 807.69"/> <polygon points="1324.2 333.4 1268.3 257.41 1285.3 247.46"/> <polygon points="1623.8 357.23 1623.9 262.9 1643.5 264.97"/> <polygon points="390.31 653.61 337.98 732.09 322.83 719.52"/> <polygon points="1677.9 663.92 1734.5 588.48 1749 601.89"/> <polygon points="673.79 367.18 593.52 317.64 605.55 302.06"/> <polygon points="678.78 458.9 597.06 411.79 608.62 395.86"/> <polygon points="619.63 213.19 535.99 169.57 546.87 153.16"/> <polygon points="1391.4 359.3 1350.8 274.12 1369.4 267.56"/> <polygon points="565.14 303.5 474.68 276.73 482.21 258.54"/> <polygon points="1523.6 909.74 1609.2 870.06 1615.6 888.69"/> <polygon points="1565.3 811.37 1642.8 757.59 1652.3 774.85"/> <polygon points="857.85 451.23 831.1 360.78 850.46 357.19"/> <polygon points="1513.7 874.95 1597.6 831.87 1604.7 850.23"/> <polygon points="678.54 1337.8 695.81 1430.5 676.18 1432.1"/> <polygon points="459.13 180.36 366.44 162.84 372.1 143.98"/> <polygon points="1616.2 222.17 1598 129.6 1617.7 127.85"/> <polygon points="791.56 223.64 728.22 153.73 744.11 142.11"/> <polygon points="280.22 508.43 204.04 564.05 194.15 547.02"/> <polygon points="1023.3 355.09 929 353.6 931.37 334.05"/> <polygon points="220.39 767.16 182.75 853.66 165.62 843.96"/> <polygon points="455.86 1162.1 463.29 1256.1 443.61 1255.6"/> <polygon points="1701.9 449.45 1724.6 357.87 1743.1 364.57"/> <polygon points="1607.9 515.86 1635 425.52 1653.2 433.12"/> <polygon points="350.02 1035.9 346.89 1130.2 327.39 1127.5"/> <polygon points="1244.2 800.91 1331.8 765.92 1337.1 784.87"/> <polygon points="1457.2 451.11 1446.9 357.34 1466.6 357.25"/> <polygon points="1390.7 129.92 1336.4 52.78 1353.6 43.19"/> <polygon points="860.28 1405.1 954.54 1408.9 951.69 1428.4"/> <polygon points="646.34 1207.8 660.66 1301 640.99 1301.9"/> <polygon points="1614.1 694.11 1675.4 622.43 1688.9 636.72"/> <polygon points="277.56 204.61 183.86 215.52 183.64 195.83"/> <polygon points="390.02 507.12 309.73 556.64 301.2 538.89"/> <polygon points="341.66 903.52 327.47 996.78 308.42 991.81"/> <polygon points="1544.7 1025.2 1634 994.86 1638.4 1014.1"/> <polygon points="363.94 342.82 271.67 362.4 269.61 342.82"/> <polygon points="305.28 311.77 213.56 333.8 210.98 314.28"/> <polygon points="1453.1 1029.9 1543.9 1004.3 1547.3 1023.7"/> <polygon points="1453.1 833.99 1536 788.96 1543.6 807.15"/> <polygon points="1435.5 1150.8 1528.2 1133 1529.9 1152.6"/> <polygon points="321.84 762.02 288.05 850.1 270.51 841.16"/> <polygon points="1101.2 1234.9 1195.5 1231.6 1194.1 1251.2"/> <polygon points="340.11 704.15 296.91 788.01 280.44 777.21"/> <polygon points="1169.1 1231.8 1263.3 1226.5 1262.4 1246.1"/> <polygon points="1663.1 593.93 1707.9 510.93 1724.2 522.04"/> <polygon points="1493.1 925.05 1580.1 888.58 1585.7 907.44"/> <polygon points="319.95 990.63 312.17 1084.6 292.82 1081"/> <polygon points="364.91 219.78 270.59 221.2 272.35 201.59"/> <polygon points="339.92 736.5 302.72 823.18 285.54 813.58"/> <polygon points="373.66 144.68 279.65 136.81 283.33 117.47"/> <polygon points="1723.8 640.6 1777.4 562.94 1792.3 575.75"/> <polygon points="1657 366.41 1662.4 272.23 1681.8 275.39"/> <polygon points="191.2 521.65 118.73 582.04 107.77 565.68"/> <polygon points="293.69 558.29 223.59 621.42 212.02 605.49"/> <polygon points="292.8 884.99 273.85 977.4 255.08 971.45"/> <polygon points="760.82 221.17 692.94 155.67 708.02 143.01"/> <polygon points="1376.9 443.76 1343.9 355.39 1363 350.47"/> <polygon points="1149 1415.1 1243.4 1414.5 1241.4 1434.1"/> <polygon points="1518.8 580.47 1553.3 492.67 1570.8 501.74"/> <polygon points="718.54 1400.8 737.21 1493.3 717.61 1495.1"/> <polygon points="1583.3 363.43 1579 269.19 1598.6 270.35"/> <polygon points="1549.9 274.2 1528.4 182.35 1547.9 179.89"/> <polygon points="1087.1 293.09 996.64 266.48 1004.1 248.27"/> <polygon points="1609.9 561.61 1646.3 474.6 1663.6 484.07"/> <polygon points="1420.1 417.08 1394.1 326.41 1413.5 322.98"/> <polygon points="335.49 365.07 245.14 392.2 241.48 372.85"/> <polygon points="1473.9 813.32 1554.3 764.1 1562.8 781.88"/> <polygon points="617.87 1161.1 630.34 1254.6 610.66 1255.1"/> <polygon points="650.14 352 566.81 307.78 577.8 291.45"/> <polygon points="264.78 579.42 198.43 646.47 185.96 631.23"/> <polygon points="1492.2 508 1503.6 414.36 1522.8 418.77"/> <polygon points="1592.4 667.95 1649.2 592.64 1663.6 606.07"/> <polygon points="237.16 424.05 154.39 469.29 146.8 451.12"/> <polygon points="1393 522.5 1385 428.51 1404.7 428.9"/> <polygon points="1233.8 588.58 1167.7 521.27 1183.1 509.02"/> <polygon points="1653.9 742.79 1721.7 677.22 1733.8 692.73"/> <polygon points="1707.6 783.8 1779.1 722.26 1790.3 738.44"/> <polygon points="724.68 1267.7 741.71 1360.5 722.08 1362"/> <polygon points="232.52 683.76 182.64 763.82 167.11 751.72"/> <polygon points="289.19 951.21 276.54 1044.7 257.41 1040"/> <polygon points="587.65 1191.5 600.08 1285 580.4 1285.5"/> <polygon points="1549 239.68 1523.6 148.83 1543 145.54"/> <polygon points="1589 241.53 1569.3 149.26 1588.9 147.19"/> <polygon points="517.45 1191.7 527.88 1285.5 508.19 1285.6"/> <polygon points="390.58 426.58 301.9 458.74 297.16 439.64"/> <polygon points="1537.5 702.54 1600.8 632.61 1613.9 647.28"/> <polygon points="1550 968.4 1637.5 933.1 1642.9 952.02"/> <polygon points="1251.5 178.55 1181.8 115 1196.5 101.91"/> <polygon points="863.18 784.28 882.76 692 901.49 698.08"/> <polygon points="197.76 403.26 114.64 447.88 107.19 429.65"/> <polygon points="1578.9 766.98 1651.2 706.39 1662.2 722.72"/> <polygon points="1626.4 385.34 1631.3 291.14 1650.7 294.2"/> <polygon points="521.56 1006.4 524.81 1100.7 505.17 1099.3"/> <polygon points="159.49 406.01 77.695 452.99 69.724 434.99"/> <polygon points="1217.2 1203.7 1311.2 1196 1310.7 1215.7"/> <polygon points="1376.1 951.77 1466.4 924.3 1470.1 943.63"/> <polygon points="719.89 243.09 646.73 183.55 660.68 169.66"/> <polygon points="851.64 1476.2 945.89 1480 943.04 1499.5"/> <polygon points="1054.5 340.31 960.87 328.52 965.36 309.35"/> <polygon points="1426.2 1051.2 1517.7 1028.3 1520.5 1047.8"/> <polygon points="239.45 382.32 153.54 421.27 147.32 402.58"/> <polygon points="1219.8 220.55 1146.1 161.68 1160 147.66"/> <polygon points="420.65 971.46 416.75 1065.7 397.27 1062.9"/> <polygon points="1293.7 334.4 1232.6 262.59 1248.8 251.45"/> <polygon points="1422 233.38 1376.9 150.53 1395.1 142.97"/> <polygon points="411.17 555.71 336.9 613.86 326.44 597.18"/> <polygon points="1547.5 203.6 1518.5 113.83 1537.7 109.77"/> <polygon points="1760.4 527.12 1798.2 440.7 1815.4 450.44"/> <polygon points="1322.4 1017 1414.6 996.96 1416.7 1016.5"/> <polygon points="376.28 993.36 371.6 1087.6 352.15 1084.6"/> <polygon points="1460.9 180.21 1418.1 96.128 1436.5 89.083"/> <polygon points="796.03 1089.8 811.37 1182.9 791.72 1184"/> <polygon points="383.23 889.8 370.15 983.22 351.04 978.47"/> <polygon points="719.72 1307.6 737.24 1400.3 717.62 1401.9"/> <polygon points="1008.7 1354.3 1103 1355.8 1100.6 1375.3"/> <polygon points="613.02 802.57 606.54 896.68 587.14 893.29"/> <polygon points="720.36 195.18 647.24 135.59 661.2 121.71"/> <polygon points="983.22 812.24 1002.8 719.97 1021.5 726.04"/> <polygon points="639.71 1083.4 650.62 1177.1 630.93 1177.4"/> <polygon points="411.34 455.24 324.1 491.13 318.55 472.24"/> <polygon points="673.35 1111.6 686.07 1205 666.39 1205.6"/> <polygon points="917.68 1044.3 1012 1041.5 1010.5 1061.1"/> <polygon points="1716.2 587.26 1761.5 504.54 1777.7 515.76"/> <polygon points="942.52 1452.5 1036.8 1456.4 1033.9 1475.8"/> <polygon points="692.72 1163.7 707.18 1256.9 687.52 1257.9"/> <polygon points="781.7 195.66 716.35 127.63 731.9 115.55"/> <polygon points="415.5 185.14 321.71 175.07 325.84 155.82"/> <polygon points="1025.1 1294.5 1119.4 1294.5 1117.4 1314.1"/> <polygon points="380.2 615.57 319.1 687.44 305.51 673.2"/> <polygon points="353.03 192.9 258.7 192.87 260.76 173.29"/> <polygon points="355.29 385.62 265.34 414.06 261.4 394.77"/> <polygon points="1754 587.61 1800.3 505.47 1816.4 516.89"/> <polygon points="1087.2 374.4 994.12 359.04 999.34 340.06"/> <polygon points="1491.4 1053.4 1582.1 1027.5 1585.5 1046.9"/> <polygon points="401.42 483.32 317.67 526.74 310.48 508.41"/> <polygon points="284.68 368.22 196.32 401.24 191.39 382.18"/> <polygon points="805.57 393.72 753.14 315.3 770.56 306.12"/> <polygon points="921.6 1252.6 941.25 1344.9 921.67 1347"/> <polygon points="373.22 529.17 296.51 584.06 286.79 566.94"/> <polygon points="135.43 568.87 69.348 636.19 56.813 621.01"/> <polygon points="897.84 523.33 901.46 429.07 920.95 431.88"/> <polygon points="1524.6 998.66 1613.5 967.19 1618.1 986.33"/> <polygon points="597.39 853.83 594.69 948.12 575.18 945.51"/> <polygon points="456.92 246.04 363.16 235.6 367.38 216.36"/> <polygon points="934.29 401.2 917.46 308.38 937.09 306.91"/> <polygon points="178.2 608.02 116.73 679.57 103.21 665.25"/> <polygon points="929.04 1343.7 1023.3 1346.7 1020.6 1366.2"/> <polygon points="1273.7 372.64 1210.3 302.87 1226.1 291.21"/> <polygon points="390.94 198.44 296.74 193.54 299.81 174.09"/> <polygon points="1310.8 806.44 1396.4 766.93 1402.8 785.57"/> <polygon points="445.68 218.55 352.06 207.01 356.49 187.83"/> <polygon points="707.72 369.74 632.64 312.64 646.13 298.3"/> <polygon points="669.87 567.95 577.76 547.62 583.98 528.94"/> <polygon points="458.62 1044.4 461.02 1138.7 441.4 1137.2"/> <polygon points="550.63 1055.5 557.39 1149.6 537.72 1149"/> <polygon points="400.1 914.58 390.44 1008.4 371.18 1004.4"/> <polygon points="549.26 333.66 456.95 314.22 463 295.48"/> <polygon points="1359.6 1071.7 1452 1053.1 1453.9 1072.7"/> <polygon points="669.12 218.02 590.4 166.05 602.9 150.84"/> <polygon points="1449.8 867.73 1535 827.35 1541.5 845.93"/> <polygon points="1282.4 701.7 1352 638.04 1363.7 653.88"/> <polygon points="1011.4 1269.9 1105.7 1269.7 1103.7 1289.3"/> <polygon points="1460.9 1062.9 1552.2 1039.1 1555.2 1058.6"/> <polygon points="1251.9 139.88 1182 76.577 1196.6 63.439"/> <polygon points="563.13 380.66 470.22 364.32 475.64 345.39"/> <polygon points="1583.4 192.6 1558.1 101.7 1577.5 98.444"/> <polygon points="1343.5 206.09 1285.7 131.52 1302.5 121.15"/> <polygon points="327.08 871.93 308.66 964.45 289.85 958.61"/> <polygon points="1404.5 923.72 1493.4 892.12 1498 911.26"/> <polygon points="1162.7 1198.4 1256.8 1192.3 1256 1212"/> <polygon points="970.73 1355.4 1065 1357.7 1062.5 1377.2"/> <polygon points="647.22 245.68 565.76 198.12 577.4 182.25"/> <polygon points="837.24 232.21 781.63 156.01 798.66 146.12"/> <polygon points="1065.4 1120.1 1159.6 1114.8 1158.6 1134.4"/> <polygon points="1279.9 1298.8 1373.9 1292 1373.3 1311.7"/> <polygon points="516.92 1145.1 525.84 1239 506.15 1238.8"/> <polygon points="132.7 507.71 59.985 567.8 49.094 551.4"/> <polygon points="468.37 769.65 445.58 861.19 427.08 854.46"/> <polygon points="165.11 518.63 92.863 579.29 81.846 562.97"/> <polygon points="1229.9 1237.9 1324 1230.8 1323.4 1250.5"/> <polygon points="1712.6 325.84 1717.9 231.65 1737.3 234.8"/> <polygon points="727.53 386.99 655.84 325.69 670.12 312.14"/> <polygon points="1162.4 1164.4 1256.5 1157.3 1255.9 1177"/> <polygon points="1198 1146.7 1291.9 1137.8 1291.7 1157.5"/> <polygon points="242.92 734.19 201.24 818.81 184.58 808.32"/> <polygon points="1387.3 413.26 1352.3 325.65 1371.2 320.3"/> <polygon points="506.77 1063.4 512.14 1157.6 492.47 1156.6"/> <polygon points="1377.7 311.91 1330.4 230.29 1348.4 222.25"/> <polygon points="814.63 1558.5 908.88 1562.3 906.03 1581.8"/> <polygon points="1731.7 562.32 1773.7 477.84 1790.3 488.39"/> <polygon points="690.22 181.7 613.96 126.18 627.15 111.56"/> <polygon points="1747 415.8 1767.9 323.8 1786.5 330.13"/> <polygon points="736.69 231.06 665.64 169.01 680.07 155.61"/> <polygon points="153.86 376.95 70.226 420.58 62.991 402.27"/> <polygon points="1322.6 1146.4 1415.9 1132.9 1416.7 1152.5"/> <polygon points="1266.7 1069.7 1359.9 1055.1 1360.9 1074.8"/> <polygon points="437.97 267.95 343.73 263.68 346.67 244.21"/> <polygon points="615.85 292.3 530.09 253 540.12 236.06"/> <polygon points="1093.8 408.18 1e3 397.38 1004.3 378.17"/> <polygon points="652.68 381.8 568.87 338.51 579.68 322.06"/> <polygon points="899.42 367.2 868.92 277.93 888.11 273.54"/> <polygon points="336.77 420.44 249.98 457.42 244.2 438.6"/> <polygon points="195.27 488.57 119.33 544.52 109.37 527.54"/> <polygon points="1255.2 1326.4 1349.4 1321 1348.4 1340.7"/> <polygon points="267.82 701.26 221.65 783.52 205.58 772.14"/> <polygon points="412.99 374.11 320.36 391.99 318.67 372.37"/> <polygon points="1446.6 534.59 1457.4 440.88 1476.6 445.16"/> <polygon points="1491.2 333.58 1467.5 242.29 1486.9 239.35"/> <polygon points="452.82 542.32 374.65 595.11 365.39 577.73"/> <polygon points="1177.8 1132.2 1271.7 1123.5 1271.4 1143.2"/> <polygon points="544.26 963.89 546.24 1058.2 526.62 1056.6"/> <polygon points="1119.5 208.13 1034.1 167.89 1044.4 151.06"/> <polygon points="1551.4 775.68 1625.5 717.25 1636 733.9"/> <polygon points="595.81 119.87 511.8 76.97 522.53 60.465"/> <polygon points="805.6 347.51 749.75 271.48 766.75 261.55"/> <polygon points="1694.6 388.31 1707.1 294.81 1726.2 299.44"/> <polygon points="1626.3 490.24 1650 398.92 1668.4 405.82"/> <polygon points="1449.4 212.99 1407.1 128.67 1425.5 121.73"/> <polygon points="1292.9 135.89 1227.6 67.825 1243.1 55.75"/> <polygon points="265.76 436.09 183.01 481.38 175.41 463.22"/> <polygon points="1557.7 303.56 1541 210.72 1560.6 209.27"/> <polygon points="1224 1350.9 1318.3 1347 1317 1366.6"/> <polygon points="1537.3 750.13 1608.4 688.13 1619.7 704.24"/> <polygon points="1376.4 1103.3 1469.1 1085.6 1470.7 1105.2"/> <polygon points="762.5 269.31 695.54 202.86 710.79 190.41"/> <polygon points="487.67 273.88 394.25 260.85 398.99 241.74"/> <polygon points="1685.8 730.89 1751.8 663.41 1764.3 678.56"/> <polygon points="1299.6 202.07 1236.1 132.32 1251.9 120.66"/> <polygon points="1205.3 1372.5 1299.5 1369.6 1298.1 1389.2"/> <polygon points="1491 575.65 1521.6 486.42 1539.5 494.71"/> <polygon points="1245.9 1071.3 1339.2 1057.6 1340 1077.3"/> <polygon points="161.9 580.97 97.006 649.44 84.207 634.48"/> <polygon points="1517.4 422.05 1513.1 327.82 1532.8 328.98"/> <polygon points="788.51 940.28 799.74 1033.9 780.05 1034.2"/> <polygon points="422.02 1086.6 424.97 1180.9 405.33 1179.5"/> <polygon points="1497 402.35 1485.1 308.77 1504.8 308.35"/> <polygon points="1114.4 1300.1 1208.7 1297.9 1207.1 1317.5"/> <polygon points="260.55 647.46 205.16 723.83 190.52 710.67"/> <polygon points="782.92 254.27 718.94 184.94 734.73 173.17"/> <polygon points="294.58 397.63 207.77 434.53 202 415.7"/> <polygon points="942.59 1370.2 1036.9 1373.4 1034.2 1392.9"/> <polygon points="538.31 382.62 444.38 373.95 448.23 354.64"/> <polygon points="1104.6 1432.4 1199 1433.1 1196.8 1452.6"/> <polygon points="1356 965.04 1446.9 939.74 1450.2 959.16"/> <polygon points="772.1 759.17 773.11 853.49 753.51 851.65"/> <polygon points="269.19 670.9 217.9 750.06 202.58 737.69"/> <polygon points="507.94 839.48 497.77 933.26 478.52 929.11"/> <polygon points="250.34 292.71 159.42 317.85 156.18 298.43"/> <polygon points="1360.4 335.19 1311.4 254.56 1329.2 246.15"/> <polygon points="425.05 297.61 330.75 299.91 332.32 280.28"/> <polygon points="417.84 524.48 338.62 575.7 329.72 558.14"/> <polygon points="1175.4 551.83 1081.1 552.6 1083 533.01"/> <polygon points="1277.3 1234.9 1371.2 1226.3 1370.9 1246"/> <polygon points="733.33 656.14 746.32 562.71 765.43 567.44"/> <polygon points="458.58 368.74 364.61 376.99 364.94 357.31"/> <polygon points="1384.7 1001.7 1475.9 977.56 1478.9 997.01"/> <polygon points="1686.3 575.21 1728.8 490.96 1745.3 501.6"/> <polygon points="700.5 208.59 625.17 151.81 638.6 137.41"/> <polygon points="1660.3 856.44 1739.2 804.66 1748.2 822.16"/> <polygon points="448.13 933.98 442.92 1028.2 423.49 1025"/> <polygon points="346.61 846.9 326.42 939.05 307.74 932.85"/> <polygon points="472.51 470.09 383.24 500.55 378.86 481.36"/> <polygon points="807.91 1530.5 902.16 1534.3 899.31 1553.8"/> <polygon points="1580.5 462.26 1593.9 368.88 1613 373.69"/> <polygon points="852.61 256.51 801.02 177.54 818.54 168.55"/> <polygon points="1418.1 1012.2 1509 987.15 1512.2 1006.6"/> <polygon points="571.69 994.02 576.55 1088.2 556.89 1087.2"/> <polygon points="1071 1332.9 1165.3 1332.6 1163.3 1352.1"/> <polygon points="716.3 986.95 726.6 1080.7 706.91 1080.8"/> <polygon points="926.58 447.43 917.41 353.55 937.1 353.69"/> <polygon points="704.19 339.64 628.74 283.02 642.13 268.59"/> <polygon points="818.32 1314.3 837.35 1406.7 817.76 1408.7"/> <polygon points="477.56 205.03 385.04 186.62 390.88 167.81"/> <polygon points="1043.6 280.68 950.89 263.13 956.55 244.27"/> <polygon points="878.84 1315.5 898.58 1407.7 879 1409.8"/> <polygon points="1385 1074.7 1477.3 1055.1 1479.3 1074.7"/> <polygon points="1156.3 888.64 1248.5 868.99 1250.6 888.57"/> <polygon points="187.23 635.92 129.64 710.63 115.38 697.05"/> <polygon points="590.06 214.71 503.82 176.49 513.64 159.42"/> <polygon points="1468.8 530.7 1482.7 437.39 1501.8 442.3"/> <polygon points="1461.2 325.35 1430.9 236.02 1450.1 231.68"/> <polygon points="234.18 837.3 206.5 927.48 188.38 919.77"/> <polygon points="1333.8 1086.7 1426.6 1070.1 1428.1 1089.7"/> <polygon points="1537.9 359.32 1526 265.75 1545.7 265.31"/> <polygon points="1267.2 260.11 1200.5 193.33 1215.9 180.96"/> <polygon points="497.43 972.38 497.58 1066.7 478 1064.7"/> <polygon points="1407 339.77 1367.7 254 1386.4 247.71"/> <polygon points="1276.1 168.42 1209.3 101.75 1224.6 89.351"/> <polygon points="326.87 207.5 232.68 212.68 233.66 193.02"/> <polygon points="1565.9 330.94 1554.1 237.34 1573.8 236.94"/> <polygon points="1252.7 1200.2 1346.6 1191.2 1346.4 1210.9"/> <polygon points="1765.1 610.46 1815 530.38 1830.5 542.48"/> <polygon points="1644.9 878.55 1725.7 829.83 1734.1 847.66"/> <polygon points="1314.8 649.2 1352.3 562.64 1369.5 572.3"/> <polygon points="717.08 849.8 721.16 944.05 701.51 942.84"/> <polygon points="889.44 1524.4 983.7 1528.2 980.84 1547.7"/> <polygon points="895.18 1494.8 989.43 1498.7 986.58 1518.2"/> <polygon points="693.56 1367.2 711.47 1459.8 691.85 1461.5"/> <polygon points="643.19 316.27 559.87 272.05 570.86 255.71"/> <polygon points="382.64 240.84 288.32 242.24 290.09 222.63"/> <polygon points="1513.3 192.82 1478.7 105.06 1497.7 99.789"/> <polygon points="507.49 1095.1 514.22 1189.2 494.54 1188.5"/> <polygon points="1755.4 442.95 1780.7 352.08 1799 359.32"/> <polygon points="1589.1 603.89 1633.1 520.45 1649.5 531.4"/> <polygon points="581.08 251.98 493.24 217.6 502.29 200.11"/> <polygon points="432.44 435.16 342.38 463.26 338.51 443.96"/> <polygon points="1442.4 146.84 1395.3 65.101 1413.3 57.106"/> <polygon points="1571.6 920.92 1656.6 880 1663.2 898.54"/> <polygon points="1308.3 367.85 1251 292.87 1267.9 282.62"/> <polygon points="1481.9 989.08 1571.3 958.99 1575.6 978.2"/> <polygon points="626.61 1049.4 635.96 1143.2 616.27 1143.1"/> <polygon points="850.34 1540.1 944.59 1543.9 941.74 1563.4"/> <polygon points="819.62 1372.4 839.22 1464.7 819.64 1466.7"/> <polygon points="1159.3 1382.8 1253.6 1381.3 1251.8 1400.9"/> <polygon points="203.01 427.76 121.6 475.42 113.48 457.48"/> <polygon points="1058.3 1300.5 1152.7 1299.7 1150.7 1319.3"/> <polygon points="910.67 482.54 906.25 388.32 925.9 389.45"/> <polygon points="1402.1 467.51 1381.2 375.51 1400.8 373.19"/> <polygon points="829.88 781.24 835.93 875.38 816.26 874.58"/> <polygon points="1511.9 1029.9 1601.9 1001.4 1605.8 1020.7"/> <polygon points="1433.6 190.64 1387.6 108.27 1405.7 100.52"/> <polygon points="1647.5 473.17 1669.8 381.52 1688.3 388.15"/> <polygon points="613.47 1189.8 626.55 1283.3 606.88 1283.9"/> <polygon points="1466.8 608.25 1504.7 521.88 1521.8 531.64"/> <polygon points="1015.7 659.93 1035.3 567.66 1054 573.73"/> <polygon points="487.71 1100.1 493.89 1194.3 474.22 1193.5"/> <polygon points="379.96 1022.8 377.44 1117.1 357.92 1114.5"/> <polygon points="374.37 456.99 289.14 497.4 282.6 478.82"/> <polygon points="899.94 1619.9 994.19 1623.7 991.34 1643.2"/> <polygon points="652.46 1136.7 665.26 1230.2 645.58 1230.8"/> <polygon points="1639.2 796.72 1713.4 738.46 1723.9 755.12"/> <polygon points="159.26 680.39 107.66 759.36 92.394 746.93"/> <polygon points="408.62 622.56 349.06 695.71 335.17 681.76"/> <polygon points="722.05 310.76 649.23 250.8 663.26 236.99"/> <polygon points="903.95 1414.1 998.2 1418 995.35 1437.5"/> <polygon points="1515.9 631.93 1563.3 550.41 1579.2 562.04"/> <polygon points="1011.5 1446.4 1105.8 1449.3 1103.2 1468.8"/> <polygon points="1133.1 1334.4 1227.4 1332.5 1225.7 1352.2"/> <polygon points="339.53 330.86 247.53 351.72 245.2 332.16"/> <polygon points="1622.7 812.16 1698.7 756.39 1708.7 773.39"/> <polygon points="671.83 1220.5 686.99 1313.6 667.33 1314.7"/> <polygon points="1587.3 302.36 1574.7 208.87 1594.4 208.29"/> <polygon points="1598.6 852.35 1678.7 802.5 1687.3 820.21"/> <polygon points="338.45 236.95 244.4 244.23 244.94 224.55"/> <polygon points="1020.9 1324.2 1115.3 1324.9 1113.1 1344.4"/> <polygon points="562.52 154.25 475.5 117.84 484.95 100.57"/> <polygon points="896.72 1365.7 990.98 1369.5 988.13 1389"/> <polygon points="1437.4 1084.9 1529.2 1063.6 1531.7 1083.1"/> <polygon points="852.76 1306.3 872.13 1398.6 852.54 1400.6"/> <polygon points="1196.2 1328.3 1290.4 1324.7 1289.2 1344.3"/> <polygon points="1181.7 1036.5 1275.2 1023.9 1275.8 1043.6"/> <polygon points="758.69 1307 776.82 1399.6 757.21 1401.4"/> <polygon points="1200.6 170.54 1124.7 114.6 1138 100.05"/> <polygon points="1764.3 485.25 1796.2 396.5 1814 405.07"/> <polygon points="1034.4 434.23 940.93 447.17 940.28 427.49"/> <polygon points="1553.7 500.41 1572.1 407.88 1590.9 413.7"/> <polygon points="1613.8 643.28 1666.3 564.9 1681.5 577.5"/> <polygon points="1400.6 700.04 1465.3 631.43 1478.2 646.36"/> <polygon points="364.01 412.23 275.45 444.71 270.63 425.62"/> <polygon points="1486.6 259.22 1453.7 170.8 1472.8 165.9"/> <polygon points="674.82 253.72 596.35 201.36 608.92 186.21"/> <polygon points="1552.9 726.72 1620.1 660.56 1632.4 675.96"/> <polygon points="687.75 283.24 610.58 228.98 623.53 214.14"/> <polygon points="836.41 1338.4 855.89 1430.7 836.3 1432.7"/> <polygon points="533.53 987.32 536.31 1081.6 516.68 1080.1"/> <polygon points="615.86 1085 626.05 1178.7 606.36 1178.8"/> <polygon points="304.81 272.25 211.9 288.6 210.53 268.96"/> <polygon points="995 1467.1 1089.3 1470.6 1086.5 1490.1"/> <polygon points="1642.2 441.72 1658.4 348.79 1677.4 354.18"/> <polygon points="1411.2 1108.7 1503.6 1089.8 1505.5 1109.4"/> <polygon points="863.95 297.05 817.45 214.98 835.5 207.12"/> <polygon points="1294.3 1028.1 1386.9 1010 1388.6 1029.6"/> <polygon points="1488.2 463.27 1487.4 368.94 1507 370.83"/> <polygon points="515.78 383.41 421.48 381.14 424.01 361.61"/> <polygon points="1610.4 282.41 1598.3 188.85 1618 188.39"/> <polygon points="1396.2 1133.4 1489 1116.4 1490.5 1136"/> <polygon points="779.41 431.06 722.18 356.07 738.99 345.82"/> <polygon points="978.56 1083.3 1072.8 1079.7 1071.5 1099.4"/> <polygon points="747.06 189.65 677.08 126.39 691.73 113.24"/> <polygon points="1089.5 833.04 1181.7 813.26 1183.8 832.84"/> <polygon points="438.76 837.33 423.46 930.41 404.47 925.21"/> <polygon points="319.99 478.02 239.22 526.76 230.87 508.93"/> <polygon points="728.1 283.88 656.09 222.95 670.31 209.33"/> <polygon points="815.07 260.44 756.8 186.26 773.47 175.78"/> <polygon points="1481.9 1018.4 1572.1 990.52 1575.9 1009.8"/> <polygon points="1601.8 344.73 1597.2 250.51 1616.8 251.6"/> <polygon points="395.36 287.05 301.2 292.82 302.06 273.14"/> <polygon points="943.35 666.03 962.93 573.76 981.66 579.83"/> <polygon points="329.1 271.4 235.69 284.56 234.99 264.89"/> <polygon points="1360.4 751.22 1437.9 697.34 1447.4 714.58"/> <polygon points="1438.8 341.55 1406.1 253.06 1425.2 248.2"/> <polygon points="1276.6 1261.5 1370.6 1253.7 1370.2 1273.4"/> <polygon points="1193.1 1176.9 1287.1 1169.2 1286.6 1188.9"/> <polygon points="702.5 525.36 624.79 471.87 637.59 456.91"/> <polygon points="316.99 725.93 276.84 811.29 260 801.1"/> <polygon points="822.25 302.67 767.41 225.92 784.54 216.2"/> <polygon points="359.4 305.7 266.13 319.81 265.23 300.14"/> <polygon points="1414.3 839.55 1498.9 797.66 1505.7 816.12"/> <polygon points="1166.6 1327.8 1260.9 1324.9 1259.5 1344.5"/> <polygon points="1372.2 1186.9 1465.5 1173.1 1466.3 1192.8"/> <polygon points="1302.2 396.59 1245.1 321.48 1261.9 311.27"/> <polygon points="1135.1 291.43 1049.2 252.4 1059.2 235.43"/> <polygon points="1147.1 470.43 1054.6 452.07 1060.4 433.26"/> <polygon points="1168.6 1352.7 1262.9 1350.3 1261.3 1369.9"/> <polygon points="1409.4 980.68 1499.8 953.71 1503.5 973.06"/> <polygon points="270.31 544.89 198.86 606.48 187.63 590.31"/> <polygon points="265.92 843.39 240.63 934.27 222.32 927.04"/> <polygon points="1608.8 759.76 1679.6 697.36 1691 713.41"/> <polygon points="1526.8 500.56 1541.6 407.4 1560.6 412.52"/> <polygon points="620.09 1222 634.09 1315.3 614.42 1316.1"/> <polygon points="962.4 1315.6 1056.7 1317.4 1054.3 1336.9"/> <polygon points="149.86 649.4 93.944 725.37 79.391 712.11"/> <polygon points="480.69 154.38 389.24 131.25 396.03 112.77"/> <polygon points="1493.3 948.95 1581.3 914.78 1586.4 933.78"/> <polygon points="514.33 430.1 420.46 439.34 420.58 419.65"/> <polygon points="1318.2 1251 1412.1 1241.6 1412 1261.2"/> <polygon points="1658.5 502.48 1686.9 412.54 1705 420.41"/> <polygon points="323.68 447.76 239.78 490.88 232.66 472.53"/> <polygon points="555.65 1181 566.89 1274.6 547.21 1274.9"/> <polygon points="1448.7 781.13 1526.6 728.01 1535.9 745.35"/> <polygon points="1136.1 1228.4 1230.4 1223.9 1229.2 1243.6"/> <polygon points="920.48 342.55 891.18 252.88 910.44 248.76"/> <polygon points="984.12 1383.9 1078.4 1386.4 1075.8 1405.9"/> <polygon points="371.63 820.07 349.56 911.78 331 905.2"/> <polygon points="749.11 1162.1 764.82 1255.1 745.17 1256.3"/> <polygon points="1123.5 1197.8 1217.7 1192.9 1216.7 1212.6"/> <polygon points="1370.6 244.42 1318.2 165.99 1335.6 156.82"/> <polygon points="1563 449.16 1571.4 355.2 1590.7 358.99"/> <polygon points="1221.8 280.88 1148.4 221.7 1162.2 207.74"/> <polygon points="571.23 228.49 483.21 194.56 492.17 177.03"/> <polygon points="1577 211.18 1552.7 120.04 1572.2 116.98"/> <polygon points="1718.2 470.34 1745.3 379.98 1763.5 387.57"/> <polygon points="668.09 1251.3 683.75 1344.3 664.1 1345.5"/> <polygon points="1134.5 1434.1 1228.8 1434.2 1226.7 1453.8"/> <polygon points="337.79 165.29 243.47 164.33 245.72 144.77"/> <polygon points="542.35 741.22 520.77 833.05 502.18 826.57"/> <polygon points="438.58 796.66 417.8 888.67 399.15 882.36"/> <polygon points="365.8 921.9 354.79 1015.6 335.58 1011.3"/> <polygon points="1027.4 301.32 933.74 290.16 938.1 270.96"/> <polygon points="749.84 1242.4 766.93 1335.2 747.3 1336.7"/> <polygon points="1024.1 328.36 929.95 322.08 933.3 302.68"/> <polygon points="928.37 1424.7 1022.6 1428.5 1019.8 1448"/> <polygon points="372.46 580.68 304.24 645.83 292.2 630.25"/> <polygon points="1543.7 172.4 1511.5 83.705 1530.6 78.971"/> <polygon points="874.68 715.04 894.26 622.76 912.99 628.84"/> <polygon points="1302.6 255.51 1240.6 184.41 1256.7 173.09"/> <polygon points="139.38 459.08 62.205 513.32 52.627 496.11"/> <polygon points="1097.6 729.34 1117.2 637.07 1135.9 643.14"/> <polygon points="859.32 1380.5 879.38 1472.7 859.81 1474.9"/> <polygon points="1264.4 222.42 1196.8 156.6 1211.9 144.01"/> <polygon points="829.64 361.17 780.78 280.47 798.6 272.09"/> <polygon points="1197.5 309.95 1120 256.2 1132.9 241.28"/> <polygon points="643.72 1259.7 659.03 1352.8 639.38 1354"/> <polygon points="1464.5 237.77 1426.3 151.52 1445 145.46"/> <polygon points="910.21 426.53 892.83 333.81 912.45 332.22"/> <polygon points="752.54 1198.6 768.98 1291.5 749.34 1292.9"/> <polygon points="410.97 160.9 317.37 149.17 321.84 130"/> <polygon points="836.19 653.61 855.77 561.33 874.5 567.4"/> <polygon points="170.95 550.71 102.23 615.34 90.314 599.67"/> <polygon points="254.09 329.82 164.66 359.85 160.38 340.64"/> <polygon points="1154 1308.5 1248.3 1305.5 1246.8 1325.2"/> <polygon points="423.22 1114 427.49 1208.3 407.83 1207.1"/> <polygon points="1552.9 387.23 1548 293.02 1567.7 294.06"/> <polygon points="609.84 178.86 525.96 135.71 536.74 119.24"/> <polygon points="1683.3 767.49 1753.5 704.5 1765.1 720.45"/> <polygon points="1237.2 196.76 1165.8 135.16 1180.1 121.67"/> <polygon points="747.52 1418 766.73 1510.4 747.14 1512.3"/> <polygon points="266.51 257.95 174.07 276.75 172.18 257.15"/> <polygon points="1099.1 1402.8 1193.4 1403.1 1191.3 1422.7"/> <polygon points="570.23 126.62 484.26 87.791 494.19 70.791"/> <polygon points="189.03 376.31 104.32 417.82 97.551 399.33"/> <polygon points="1404 1064.7 1496 1043.6 1498.4 1063.2"/> <polygon points="383.69 1049.7 382.98 1144 363.42 1141.8"/> <polygon points="1007.4 451.55 915.88 474.22 913.17 454.72"/> <polygon points="1477.9 870.72 1562.5 829.08 1569.3 847.56"/> <polygon points="420.92 584.6 352.18 649.2 340.27 633.52"/> <polygon points="1414.1 442.33 1391.2 350.82 1410.6 348.06"/> <polygon points="190.84 786.48 154.68 873.6 137.39 864.2"/> <polygon points="552.4 915.68 551.73 1010 532.16 1007.8"/> <polygon points="443.65 471.61 356.27 507.16 350.8 488.24"/> <polygon points="914.28 389.25 890.82 297.88 910.3 295"/> <polygon points="1596.4 736.9 1664.4 671.5 1676.5 687.03"/> <polygon points="1037.3 1438.2 1131.6 1440.5 1129.1 1460"/> <polygon points="590.68 1062.4 599.22 1156.4 579.53 1156.1"/> <polygon points="903.66 829.32 915.16 922.95 895.47 923.3"/> <polygon points="455.72 677.05 411.7 760.49 395.34 749.53"/> <polygon points="676.9 324.41 597.81 273 610.21 257.7"/> <polygon points="516.23 304.81 423.14 289.56 428.34 270.57"/> <polygon points="1448.3 1000.5 1538.5 973.03 1542.2 992.36"/> <polygon points="791.46 855.96 799.49 949.95 779.81 949.58"/> <polygon points="452.96 334.77 358.67 337.82 360.1 318.18"/> <polygon points="1208.3 452.1 1130.8 398.32 1143.6 383.4"/> <polygon points="1237.5 1125.9 1331.2 1114.8 1331.5 1134.5"/> <polygon points="901.35 840.05 920.93 747.78 939.66 753.85"/> <polygon points="747.78 1285.6 765.46 1378.2 745.84 1379.9"/> <polygon points="484.72 371.02 390.43 373.97 391.87 354.34"/> <polygon points="1303.6 959.7 1395.1 936.86 1397.9 956.36"/> <polygon points="1308.6 1105.6 1401.8 1090.9 1402.8 1110.6"/> <polygon points="346.93 464.3 263.66 508.62 256.27 490.37"/> <polygon points="519.59 1032.9 524.08 1127.1 504.42 1126"/> <polygon points="853.44 1585.2 947.69 1589 944.84 1608.5"/> <polygon points="781.17 349.75 719.83 278.09 736.04 266.92"/> <polygon points="829.57 411.04 786.33 327.21 804.67 320.06"/> <polygon points="836.24 328.1 786.17 248.15 803.86 239.5"/> <polygon points="1718.7 421 1738.2 328.7 1756.9 334.76"/> <polygon points="1356.6 155.96 1299 81.277 1315.7 70.942"/> <polygon points="1301.3 1224.2 1395.2 1214.4 1395.2 1234.1"/> <polygon points="1538.1 463 1545.9 368.99 1565.2 372.64"/> <polygon points="210.95 287.58 120.89 315.67 117.02 296.36"/> <polygon points="1194.4 1237.4 1288.6 1231.4 1287.8 1251.1"/> <polygon points="1446.5 1119.6 1538.7 1099.8 1540.8 1119.3"/> <polygon points="1356.6 280.82 1303.8 202.68 1321.1 193.41"/> <polygon points="1196.1 368.21 1117.5 316.12 1130 300.93"/> <polygon points="1233.5 1301.4 1327.7 1296 1326.8 1315.6"/> <polygon points="1296.6 1188.4 1390.3 1177.5 1390.5 1197.2"/> <polygon points="221.78 447.02 141.4 496.38 132.9 478.62"/> <polygon points="1294.6 1162.8 1388.2 1151 1388.6 1170.7"/> <polygon points="553.32 1209.7 565.29 1303.2 545.6 1303.7"/> <polygon points="853.84 1274 872.9 1366.4 853.31 1368.3"/> <polygon points="1579.4 552.49 1612 463.96 1629.6 472.65"/> <polygon points="1501.1 228.69 1467.7 140.47 1486.7 135.46"/> <polygon points="1526.8 223.58 1496.8 134.18 1516 129.88"/> <polygon points="516.37 137.34 426.91 107.41 435.07 89.491"/> <polygon points="465 1109.3 470.7 1203.4 451.03 1202.6"/> <polygon points="579.66 421 486.41 406.78 491.39 387.73"/> <polygon points="624.95 401.64 536.64 368.47 545.45 350.86"/> <polygon points="1463.7 562.76 1486.9 471.32 1505.4 478.13"/> <polygon points="1004.3 973.49 1098.3 965.54 1097.9 985.23"/> <polygon points="695.86 1277.9 712.52 1370.7 692.89 1372.2"/> <polygon points="1226.4 1164.3 1320.3 1155 1320.2 1174.7"/> <polygon points="1389.9 1159.4 1482.9 1143.9 1484.1 1163.5"/> <polygon points="1515.3 970.92 1603.6 937.58 1608.6 956.63"/> <polygon points="322.46 389.17 234.01 421.96 229.13 402.89"/> <polygon points="849.12 363.6 805.55 279.94 823.87 272.71"/> <polygon points="986.12 1499 1080.4 1502.8 1077.5 1522.3"/> <polygon points="878.69 1110 896.07 1202.7 876.44 1204.3"/> <polygon points="615.43 256.32 530.51 215.26 540.88 198.53"/> <polygon points="1512.6 777.37 1588 720.65 1598.1 737.54"/> <polygon points="1316.4 282.21 1257.2 208.78 1273.8 198.08"/> <polygon points="1547.6 427.53 1549.3 333.21 1568.9 335.63"/> <polygon points="1691.9 352.06 1698.8 257.98 1718.2 261.45"/> <polygon points="855.64 1445.6 949.9 1449.4 947.05 1468.9"/> <polygon points="807.45 1292 826.1 1384.5 806.5 1386.3"/> <polygon points="590.51 1276.4 604.98 1369.6 585.32 1370.6"/> <polygon points="1386.3 379.76 1346.9 294.08 1365.5 287.76"/> <polygon points="1418.9 387.3 1387.9 298.2 1407.1 293.71"/> <polygon points="1634.8 238.66 1620.7 145.4 1640.4 144.5"/> <polygon points="1635.7 761.57 1706.2 698.8 1717.7 714.79"/> <polygon points="1631 539.14 1664.4 450.9 1682 459.75"/> <polygon points="1196.1 1287.5 1290.3 1282.9 1289.3 1302.5"/> <polygon points="452.03 976.69 450.14 1071 430.6 1068.6"/> <polygon points="1560.7 581.1 1598.3 494.58 1615.4 504.27"/> <polygon points="758.24 1393.5 777.34 1485.9 757.75 1487.9"/> <polygon points="776.61 493.98 725.21 414.88 742.75 405.93"/> <polygon points="616.7 336.02 529.79 299.35 539.3 282.1"/> <polygon points="230.38 317.85 141.1 348.31 136.72 329.11"/> <polygon points="1764.2 558.19 1806.7 473.93 1823.2 484.58"/> <polygon points="802.26 1348.3 821.44 1440.7 801.85 1442.7"/> <polygon points="1238.6 244.92 1167.5 182.84 1182 169.45"/> <polygon points="700.05 1251.9 716.36 1344.8 696.72 1346.2"/> <polygon points="277.5 293.02 185.86 315.42 183.21 295.91"/> <polygon points="575.12 1116.1 585 1209.9 565.31 1209.9"/> <polygon points="1045.5 1402 1139.8 1403.5 1137.4 1423"/> <polygon points="994.81 331.57 900.48 332.18 902.41 312.59"/> <polygon points="827.36 1453.5 921.62 1457.3 918.77 1476.8"/> <polygon points="1427 488.16 1418.5 394.21 1438.2 394.5"/> <polygon points="456.22 903.29 448.93 997.34 429.57 993.77"/> <polygon points="701.15 142.9 626.1 85.745 639.6 71.411"/> <polygon points="289.39 718.43 246.82 802.62 230.28 791.95"/> <polygon points="768.23 1437.8 787.84 1530 768.26 1532.1"/> <polygon points="285.19 750.96 247.83 837.58 230.66 827.94"/> <polygon points="1238.6 874.94 1329.3 849.04 1332.7 868.43"/> <polygon points="1620.6 862.08 1700.8 812.47 1709.3 830.21"/> <polygon points="894.54 1291.6 914.24 1383.8 894.66 1385.9"/> <polygon points="898.52 1337 918.62 1429.1 899.05 1431.3"/> <polygon points="945.62 1562.9 1039.9 1566.8 1037 1586.3"/> <polygon points="1508.4 482.72 1516 388.7 1535.4 392.32"/> <polygon points="781.29 1372.7 800.46 1465.1 780.87 1467"/> <polygon points="1610.2 319.21 1602.9 225.16 1622.6 225.7"/> <polygon points="1353.5 381.15 1306.7 299.26 1324.7 291.32"/> <polygon points="875.1 269.72 828.68 187.61 846.73 179.76"/> <polygon points="747.36 1342.7 765.75 1435.2 746.15 1437"/> <polygon points="1347 248.59 1291.2 172.52 1308.3 162.6"/> <polygon points="1292.5 1131.5 1386 1118.6 1386.6 1138.2"/> </svg>