<svg width="24" height="24" viewBox="0 0 24 24" fill="none" xmlns="http://www.w3.org/2000/svg">
<path d="M3.85742 0.5H14.1426C14.9789 0.5 15.8227 0.942661 16.4707 1.80664C17.1205 2.67328 17.4999 3.87222 17.5 5.14258V8.06445L18.3535 7.21094L21.9531 3.61035C22.1274 3.43606 22.2957 3.36967 22.4375 3.35645C22.5818 3.3431 22.7391 3.3814 22.8936 3.48438C23.2069 3.69329 23.5 4.16969 23.5 4.85742V19.1426C23.5 19.8303 23.2069 20.3067 22.8936 20.5156C22.7391 20.6186 22.5818 20.6569 22.4375 20.6436C22.2957 20.6303 22.1274 20.5639 21.9531 20.3896L18.3535 16.7891L17.5 15.9355V18.8574C17.4999 20.1278 17.1205 21.3267 16.4707 22.1934C15.8227 23.0573 14.9789 23.5 14.1426 23.5H3.85742C3.02109 23.5 2.17728 23.0573 1.5293 22.1934C0.879488 21.3267 0.500055 20.1278 0.5 18.8574V5.14258C0.500056 3.87222 0.879488 2.67328 1.5293 1.80664C2.17728 0.942661 3.02109 0.5 3.85742 0.5ZM3.85742 1.78613C3.10262 1.78613 2.4196 2.18619 1.94238 2.82227C1.46727 3.45575 1.21392 4.29161 1.21387 5.14258V18.8574C1.21392 19.7084 1.46727 20.5442 1.94238 21.1777C2.4196 21.8138 3.10262 22.2139 3.85742 22.2139H14.1426C14.8974 22.2139 15.5804 21.8138 16.0576 21.1777C16.5327 20.5442 16.7861 19.7084 16.7861 18.8574V5.14258C16.7861 4.29161 16.5327 3.45575 16.0576 2.82227C15.5804 2.18619 14.8974 1.78613 14.1426 1.78613H3.85742ZM21.9326 5.0752L17.6465 9.36035L17.5 9.50684V14.4932L17.6465 14.6396L21.9326 18.9248L22.7861 19.7783V4.22168L21.9326 5.0752Z" fill="black"/>
<path d="M3.85742 0.5H14.1426C14.9789 0.5 15.8227 0.942661 16.4707 1.80664C17.1205 2.67328 17.4999 3.87222 17.5 5.14258V8.06445L18.3535 7.21094L21.9531 3.61035C22.1274 3.43606 22.2957 3.36967 22.4375 3.35645C22.5818 3.3431 22.7391 3.3814 22.8936 3.48438C23.2069 3.69329 23.5 4.16969 23.5 4.85742V19.1426C23.5 19.8303 23.2069 20.3067 22.8936 20.5156C22.7391 20.6186 22.5818 20.6569 22.4375 20.6436C22.2957 20.6303 22.1274 20.5639 21.9531 20.3896L18.3535 16.7891L17.5 15.9355V18.8574C17.4999 20.1278 17.1205 21.3267 16.4707 22.1934C15.8227 23.0573 14.9789 23.5 14.1426 23.5H3.85742C3.02109 23.5 2.17728 23.0573 1.5293 22.1934C0.879488 21.3267 0.500055 20.1278 0.5 18.8574V5.14258C0.500056 3.87222 0.879488 2.67328 1.5293 1.80664C2.17728 0.942661 3.02109 0.5 3.85742 0.5ZM3.85742 1.78613C3.10262 1.78613 2.4196 2.18619 1.94238 2.82227C1.46727 3.45575 1.21392 4.29161 1.21387 5.14258V18.8574C1.21392 19.7084 1.46727 20.5442 1.94238 21.1777C2.4196 21.8138 3.10262 22.2139 3.85742 22.2139H14.1426C14.8974 22.2139 15.5804 21.8138 16.0576 21.1777C16.5327 20.5442 16.7861 19.7084 16.7861 18.8574V5.14258C16.7861 4.29161 16.5327 3.45575 16.0576 2.82227C15.5804 2.18619 14.8974 1.78613 14.1426 1.78613H3.85742ZM21.9326 5.0752L17.6465 9.36035L17.5 9.50684V14.4932L17.6465 14.6396L21.9326 18.9248L22.7861 19.7783V4.22168L21.9326 5.0752Z" stroke="black"/>
<path d="M3.85742 0.5H14.1426C14.9789 0.5 15.8227 0.942661 16.4707 1.80664C17.1205 2.67328 17.4999 3.87222 17.5 5.14258V8.06445L18.3535 7.21094L21.9531 3.61035C22.1274 3.43606 22.2957 3.36967 22.4375 3.35645C22.5818 3.3431 22.7391 3.3814 22.8936 3.48438C23.2069 3.69329 23.5 4.16969 23.5 4.85742V19.1426C23.5 19.8303 23.2069 20.3067 22.8936 20.5156C22.7391 20.6186 22.5818 20.6569 22.4375 20.6436C22.2957 20.6303 22.1274 20.5639 21.9531 20.3896L18.3535 16.7891L17.5 15.9355V18.8574C17.4999 20.1278 17.1205 21.3267 16.4707 22.1934C15.8227 23.0573 14.9789 23.5 14.1426 23.5H3.85742C3.02109 23.5 2.17728 23.0573 1.5293 22.1934C0.879488 21.3267 0.500055 20.1278 0.5 18.8574V5.14258C0.500056 3.87222 0.879488 2.67328 1.5293 1.80664C2.17728 0.942661 3.02109 0.5 3.85742 0.5ZM3.85742 1.78613C3.10262 1.78613 2.4196 2.18619 1.94238 2.82227C1.46727 3.45575 1.21392 4.29161 1.21387 5.14258V18.8574C1.21392 19.7084 1.46727 20.5442 1.94238 21.1777C2.4196 21.8138 3.10262 22.2139 3.85742 22.2139H14.1426C14.8974 22.2139 15.5804 21.8138 16.0576 21.1777C16.5327 20.5442 16.7861 19.7084 16.7861 18.8574V5.14258C16.7861 4.29161 16.5327 3.45575 16.0576 2.82227C15.5804 2.18619 14.8974 1.78613 14.1426 1.78613H3.85742ZM21.9326 5.0752L17.6465 9.36035L17.5 9.50684V14.4932L17.6465 14.6396L21.9326 18.9248L22.7861 19.7783V4.22168L21.9326 5.0752Z" stroke="black" stroke-opacity="0.2"/>
</svg>
